<svg xmlns="http://www.w3.org/2000/svg" viewBox="0 0 64 64">
  <rect width="64" height="64" rx="18" fill="#ffffff" />
  <path d="M10 36c9-8 17-11 25-11 10 0 16 4 29 8-8 5-17 8-29 8-11 0-18-3-25-5Z" fill="#109cf3" />
  <path d="M10 42c11-4 18-4 24-3 7 1 12 4 22 3-6 4-13 6-22 6-10 0-16-2-24-6Z" fill="#e6007e" />
  <path d="M17 48c9 0 14-1 19-3 5-2 10-4 18-4-5 4-12 9-24 9-6 0-10-1-13-2Z" fill="#ffcf0f" />
  <path
    d="M14 17h9.4c4.6 0 8.1 1.1 10.7 3.4 2.6 2.2 3.9 5.4 3.9 9.4 0 4.1-1.3 7.3-3.8 9.6-2.6 2.3-6.2 3.4-10.8 3.4H14V17Zm8.9 20.4c2.5 0 4.5-.6 6-1.9 1.5-1.4 2.2-3.2 2.2-5.7 0-2.4-.7-4.3-2.2-5.6-1.5-1.3-3.5-2-6.1-2h-2.6v15.2h2.7Z"
    fill="#101113"
  />
  <path
    d="M42.1 17h7.1l7 12.1V17H63v25.8h-7l-7.1-12.1v12.1h-6.8V17ZM46.8 47.4c1.2 0 2.3.4 3.2 1.2.9.8 1.4 1.8 1.4 3s-.5 2.2-1.4 3c-.9.8-2 1.2-3.2 1.2s-2.3-.4-3.2-1.2c-.9-.8-1.3-1.8-1.3-3s.4-2.2 1.3-3c.9-.8 2-1.2 3.2-1.2Z"
    fill="#101113"
  />
</svg>
