<?xml version="1.0" encoding="UTF-8"?>
<svg id="Réteg_1" xmlns="http://www.w3.org/2000/svg" version="1.1" viewBox="0 0 255.5 239.09">
  <!-- Generator: Adobe Illustrator 30.5.1, SVG Export Plug-In . SVG Version: 2.1.4 Build 3)  -->
  <defs>
    <style>
      .st0 {
        fill: #009fe3;
      }
    </style>
  </defs>
  <path class="st0" d="M222.85,0H54.42C36.41,0,21.77,14.65,21.77,32.65v154.77H6.01c-3.32,0-6.01,2.69-6.01,6.01v13.01c0,18,14.65,32.65,32.65,32.65h136.94c18,0,32.65-14.65,32.65-32.65v-30.59h47.26c3.32,0,6.01-2.69,6.01-6.01V32.65c0-18-14.64-32.65-32.65-32.65ZM32.65,227.07c-11.37,0-20.62-9.25-20.62-20.62v-7h124.91v7c0,7.81,2.76,15,7.36,20.62H32.65ZM190.2,32.65v173.8c0,11.37-9.25,20.62-20.62,20.62s-20.62-9.25-20.62-20.62v-13.01c0-3.32-2.69-6.01-6.01-6.01H33.79V32.65c0-11.37,9.25-20.62,20.62-20.62h143.15c-4.6,5.63-7.36,12.81-7.36,20.62ZM243.47,163.83h-41.24V32.65c0-11.37,9.25-20.62,20.62-20.62s20.62,9.25,20.62,20.62v131.18Z"/>
</svg>