<?xml version="1.0" encoding="UTF-8"?>
<svg id="Réteg_1" xmlns="http://www.w3.org/2000/svg" version="1.1" viewBox="0 0 294.22 267.73">
  <!-- Generator: Adobe Illustrator 30.5.1, SVG Export Plug-In . SVG Version: 2.1.4 Build 3)  -->
  <defs>
    <style>
      .st0 {
        fill: #0a0b09;
      }
    </style>
  </defs>
  <path class="st0" d="M251.9,110.4c-3.32,0-6.01,2.69-6.01,6.01v82.78H12.02V57.51c0-5.09,4.14-9.22,9.22-9.22h165.59c3.32,0,6.01-2.69,6.01-6.01s-2.69-6.01-6.01-6.01H21.25C9.53,36.27,0,45.8,0,57.51v148.39c0,11.72,9.53,21.25,21.25,21.25h79.19c-1.93,1-3.25,3.01-3.25,5.34,0,12.46-4.89,20.14-7.36,23.22h-11.2c-3.32,0-6.01,2.69-6.01,6.01s2.69,6.01,6.01,6.01h100.66c3.32,0,6.01-2.69,6.01-6.01s-2.69-6.01-6.01-6.01h-11.18c-2.46-3.12-7.38-10.88-7.38-23.22,0-2.32-1.32-4.34-3.25-5.34h79.19c11.72,0,21.25-9.53,21.25-21.25v-89.48c0-3.32-2.69-6.01-6.01-6.01ZM153.98,255.71h-50.06c2.78-5.55,5.28-13.3,5.28-23.22,0-2.32-1.32-4.34-3.25-5.34h45.99c-1.93,1-3.25,3.01-3.25,5.34,0,9.93,2.5,17.67,5.28,23.22Z"/>
  <path class="st0" d="M285.16,16.08l-12.06-10.13c-5.2-4.37-11.79-6.44-18.55-5.85-6.76.59-12.89,3.78-17.25,8.98l-10.97,13.07s0,0,0,0,0,0,0,0l-76.1,90.66s-.06.08-.1.13c-.08.09-.15.19-.22.29-.05.07-.09.14-.14.21-.06.09-.12.19-.17.28-.05.09-.09.17-.14.26-.04.08-.08.17-.12.26-.05.1-.09.21-.13.32-.03.07-.06.15-.08.23-.04.12-.07.25-.11.37-.01.05-.03.09-.04.14l-14.03,59.14c-.52,2.21.24,4.53,1.98,5.99,1.1.93,2.48,1.41,3.87,1.41.8,0,1.61-.16,2.38-.49l25.59-11.03s.01,0,.02,0l30.2-13.02c.06-.03.12-.06.18-.09.1-.05.2-.09.3-.15.09-.05.17-.1.26-.15.08-.05.16-.1.24-.15.09-.06.18-.13.27-.2.07-.05.13-.1.2-.15.09-.08.18-.16.27-.24.06-.05.11-.1.17-.16.09-.09.17-.18.25-.27.03-.04.07-.07.1-.11l76.11-90.67s0,0,0,0c0,0,0,0,0,0l10.97-13.07c9.01-10.73,7.61-26.8-3.13-35.81ZM231.66,34.49l32.57,27.34-68.38,81.46-32.58-27.34,68.38-81.46ZM167.29,157.85l-13.4-11.25,4.52-19.04,26.85,22.54-17.97,7.75ZM150.79,159.69l4.15,3.48-5.54,2.39,1.39-5.87ZM279.07,44.15l-7.11,8.47-32.57-27.34,7.11-8.47c2.3-2.74,5.53-4.42,9.09-4.73,3.56-.31,7.03.78,9.77,3.08l12.06,10.13c5.66,4.75,6.39,13.21,1.65,18.87Z"/>
  <path class="st0" d="M197.97,117.04l8.99-10.71c.89-1.06,1.34-2.34,1.4-3.62,1.26-.27,2.44-.95,3.33-2.01l34.81-41.47c2.13-2.54,1.8-6.34-.74-8.47-2.54-2.13-6.34-1.8-8.47.74l-34.81,41.47c-.89,1.06-1.35,2.34-1.4,3.63-1.26.27-2.44.94-3.33,2l-8.99,10.71c-2.13,2.54-1.8,6.34.74,8.47,1.13.95,2.5,1.41,3.86,1.41,1.72,0,3.42-.73,4.61-2.15Z"/>
</svg>