<?xml version="1.0" encoding="UTF-8"?>
<svg id="Réteg_1" xmlns="http://www.w3.org/2000/svg" version="1.1" viewBox="0 0 272.58 271.93">
  <!-- Generator: Adobe Illustrator 30.5.1, SVG Export Plug-In . SVG Version: 2.1.4 Build 3)  -->
  <defs>
    <style>
      .st0 {
        fill: #009fe3;
      }
    </style>
  </defs>
  <path class="st0" d="M235.76,67.69h-1.74v-3.93c0-8.84-7.19-16.03-16.03-16.03h-6.42v-23.52c0-13.35-10.86-24.21-24.21-24.21h-102.13c-13.35,0-24.21,10.86-24.21,24.21v23.52h-6.42c-8.84,0-16.03,7.19-16.03,16.03v3.93h-1.74C16.52,67.69,0,84.2,0,104.51v68.34c0,20.3,16.52,36.82,36.82,36.82h23.71v34.89c0,15.09,12.28,27.37,27.37,27.37h96.77c15.09,0,27.37-12.28,27.37-27.37v-34.89h23.71c20.3,0,36.82-16.52,36.82-36.82v-68.34c0-20.3-16.52-36.82-36.82-36.82ZM217.98,59.75c2.21,0,4.01,1.8,4.01,4.01v3.93h-10.43v-7.94h6.42ZM73.04,24.21c0-6.72,5.47-12.18,12.18-12.18h102.13c6.72,0,12.18,5.47,12.18,12.18v43.48h-126.5V24.21ZM50.59,63.76c0-2.21,1.8-4.01,4.01-4.01h6.42v7.94h-10.43v-3.93ZM200.03,244.55c0,8.46-6.89,15.35-15.35,15.35h-96.77c-8.46,0-15.35-6.89-15.35-15.35v-79.8h127.47v79.8ZM260.55,172.85c0,13.67-11.12,24.79-24.79,24.79h-23.71v-38.9c0-3.32-2.69-6.01-6.01-6.01H66.54c-3.32,0-6.01,2.69-6.01,6.01v38.9h-23.71c-13.67,0-24.79-11.12-24.79-24.79v-68.34c0-13.67,11.12-24.79,24.79-24.79h198.94c13.67,0,24.79,11.12,24.79,24.79v68.34Z"/>
  <path class="st0" d="M180.22,179.2h-84.61c-3.32,0-6.01,2.69-6.01,6.01s2.69,6.01,6.01,6.01h84.61c3.32,0,6.01-2.69,6.01-6.01s-2.69-6.01-6.01-6.01Z"/>
  <path class="st0" d="M180.22,207.62h-84.61c-3.32,0-6.01,2.69-6.01,6.01s2.69,6.01,6.01,6.01h84.61c3.32,0,6.01-2.69,6.01-6.01s-2.69-6.01-6.01-6.01Z"/>
  <path class="st0" d="M149.63,236.04h-54.02c-3.32,0-6.01,2.69-6.01,6.01s2.69,6.01,6.01,6.01h54.02c3.32,0,6.01-2.69,6.01-6.01s-2.69-6.01-6.01-6.01Z"/>
</svg>