<?xml version="1.0" encoding="UTF-8"?>
<svg id="Réteg_1" xmlns="http://www.w3.org/2000/svg" version="1.1" viewBox="0 0 291.46 207.73">
  <!-- Generator: Adobe Illustrator 30.5.1, SVG Export Plug-In . SVG Version: 2.1.4 Build 3)  -->
  <defs>
    <style>
      .st0 {
        fill: #ffed00;
      }
    </style>
  </defs>
  <path class="st0" d="M257.99,0H33.48C15.02,0,0,15.02,0,33.48v140.78c0,18.46,15.02,33.48,33.48,33.48h224.51c18.46,0,33.48-15.02,33.48-33.48V33.48c0-18.46-15.02-33.48-33.48-33.48ZM279.44,174.25c0,11.83-9.62,21.45-21.45,21.45H33.48c-11.83,0-21.45-9.62-21.45-21.45V33.48c0-11.83,9.62-21.45,21.45-21.45h224.51c11.83,0,21.45,9.62,21.45,21.45v140.78Z"/>
  <path class="st0" d="M77.01,102.84c12.34,0,22.35-15.92,22.35-28.26s-10-22.35-22.35-22.35-22.35,10-22.35,22.35,10,28.26,22.35,28.26Z"/>
  <path class="st0" d="M96.97,110.78c-13.51-1.93-12.87,4.3-19.96,4.3s-6.45-6.23-19.96-4.3c-6.63.95-22.61,12.6-22.61,45.57h85.14c0-32.98-15.98-44.63-22.61-45.57Z"/>
  <path class="st0" d="M247.65,61.83h-99.28c-3.32,0-6.01,2.69-6.01,6.01s2.69,6.01,6.01,6.01h99.28c3.32,0,6.01-2.69,6.01-6.01s-2.69-6.01-6.01-6.01Z"/>
  <path class="st0" d="M247.65,97.85h-99.28c-3.32,0-6.01,2.69-6.01,6.01s2.69,6.01,6.01,6.01h99.28c3.32,0,6.01-2.69,6.01-6.01s-2.69-6.01-6.01-6.01Z"/>
  <path class="st0" d="M247.65,133.88h-99.28c-3.32,0-6.01,2.69-6.01,6.01s2.69,6.01,6.01,6.01h99.28c3.32,0,6.01-2.69,6.01-6.01s-2.69-6.01-6.01-6.01Z"/>
</svg>