<?xml version="1.0" encoding="UTF-8"?>
<svg id="Réteg_1" xmlns="http://www.w3.org/2000/svg" version="1.1" viewBox="0 0 340.16 298.07">
  <!-- Generator: Adobe Illustrator 30.5.1, SVG Export Plug-In . SVG Version: 2.1.4 Build 3)  -->
  <defs>
    <style>
      .st0 {
        fill: #e6007e;
      }
    </style>
  </defs>
  <path class="st0" d="M41.43,80.25l124.13-12.36c3.3-.33,5.72-3.27,5.39-6.58-.33-3.3-3.28-5.73-6.58-5.39l-124.13,12.36c-3.3.33-5.72,3.27-5.39,6.58.31,3.1,2.92,5.42,5.98,5.42.2,0,.4,0,.6-.03Z"/>
  <path class="st0" d="M44.79,113.99l124.13-12.36c3.3-.33,5.72-3.27,5.39-6.58-.33-3.3-3.28-5.72-6.58-5.39l-124.13,12.36c-3.3.33-5.72,3.27-5.39,6.58.31,3.1,2.92,5.42,5.98,5.42.2,0,.4,0,.6-.03Z"/>
  <path class="st0" d="M48.15,147.73l124.13-12.36c3.3-.33,5.72-3.27,5.39-6.58-.33-3.3-3.28-5.72-6.58-5.39l-124.13,12.36c-3.3.33-5.72,3.27-5.39,6.58.31,3.1,2.92,5.42,5.98,5.42.2,0,.4,0,.6-.03Z"/>
  <path class="st0" d="M174.46,157.14l-124.13,12.36c-3.3.33-5.72,3.27-5.39,6.58.31,3.1,2.92,5.42,5.98,5.42.2,0,.4,0,.6-.03l124.13-12.36c3.3-.33,5.72-3.27,5.39-6.58-.33-3.3-3.28-5.72-6.58-5.39Z"/>
  <path class="st0" d="M155.06,193.15l-101.37,10.1c-3.3.33-5.72,3.27-5.39,6.58.31,3.1,2.92,5.42,5.98,5.42.2,0,.4,0,.6-.03l101.37-10.1c3.3-.33,5.72-3.27,5.39-6.58-.33-3.3-3.27-5.72-6.58-5.39Z"/>
  <path class="st0" d="M339.92,70.9c-.44-1.53-1.47-2.83-2.87-3.6l-64.8-35.89.4-1.95c.67-3.25-1.42-6.43-4.67-7.1l-72.55-14.95-.2-1.98c-.33-3.3-3.27-5.72-6.58-5.39L5.42,18.28c-1.59.16-3.05.94-4.06,2.17C.35,21.69-.13,23.27.03,24.86l24.87,249.68c.16,1.59.94,3.05,2.17,4.06,1.08.88,2.43,1.36,3.81,1.36.2,0,.4,0,.6-.03l123.81-12.33,1.13.23,53.26,29.49c.92.51,1.92.75,2.91.75,2.12,0,4.17-1.12,5.26-3.1l121.56-219.5c.77-1.39.96-3.04.52-4.57ZM259.67,32.92l-.08.36s0,.04-.01.06l-11.24,54.53s0,.04-.01.06l-7.16,34.73s0,.04-.01.06l-7.16,34.73s0,.04-.01.06l-7.16,34.73s0,.04-.01.06l-8.75,42.45-5.89-59.15c.04-.13.09-.26.12-.39.29-1.41.06-2.8-.55-3.99l-2.5-25.13,2.8.58c.41.08.82.13,1.22.13,2.79,0,5.3-1.96,5.88-4.8.67-3.25-1.42-6.43-4.67-7.1l-6.48-1.33-2.27-22.81,13.16,2.71c.41.08.82.13,1.22.13,2.79,0,5.3-1.96,5.88-4.8.67-3.25-1.42-6.43-4.67-7.1l-16.84-3.47-2.27-22.81,23.53,4.85c.41.08.82.13,1.22.13,2.79,0,5.3-1.96,5.88-4.8.67-3.25-1.42-6.43-4.67-7.1l-27.2-5.61-4.28-42.93,62.99,12.98ZM212.48,261.89l-1.03,4.99-16-3.3,17.03-1.7ZM12.59,29.65L183.86,12.59l.04.37s0,.03,0,.05l9.04,90.75s0,.04,0,.06l3.51,35.28s0,.04,0,.06l3.51,35.28s0,.05,0,.07l7.55,75.78-171.27,17.06L12.59,29.65ZM210.24,283.89l-14.29-7.92,16.76,3.45-2.47,4.46ZM226.14,255.18l11.99-58.2c.08-.12.16-.23.23-.36.7-1.26.89-2.66.66-3.97l5.1-24.73,2.5,1.38c.92.51,1.92.75,2.91.75,2.12,0,4.17-1.12,5.27-3.1,1.61-2.9.56-6.56-2.35-8.17l-5.78-3.2,4.63-22.45,11.76,6.51c.92.51,1.92.75,2.91.75,2.12,0,4.17-1.12,5.26-3.1,1.61-2.9.56-6.56-2.35-8.17l-15.04-8.33,4.63-22.45,21.02,11.64c.92.51,1.92.75,2.91.75,2.12,0,4.17-1.12,5.26-3.1,1.61-2.9.56-6.56-2.35-8.17l-24.3-13.46,8.71-42.25,56.26,31.16-99.83,180.27Z"/>
</svg>