<?xml version="1.0" encoding="UTF-8"?>
<svg id="Réteg_1" xmlns="http://www.w3.org/2000/svg" version="1.1" viewBox="0 0 1485.63 340.16">
  <!-- Generator: Adobe Illustrator 30.5.1, SVG Export Plug-In . SVG Version: 2.1.4 Build 3)  -->
  <defs>
    <style>
      .st0 {
        fill: #1d1d1b;
      }

      .st1 {
        fill: #ffed00;
      }

      .st2 {
        fill: #009fe3;
      }

      .st3 {
        fill: #e6007e;
      }
    </style>
  </defs>
  <g>
    <path class="st2" d="M0,197.75s128.94-121.11,320.51-121.11,327.3,95.53,553.85,140.42,454.14-.52,611.27-64.21c0,0-169.65,121.63-487.55,121.63S537.67,145.55,346.61,127.8C155.56,110.05,66.82,158.6,0,197.75Z"/>
    <g>
      <path class="st3" d="M480.96,193.85c260.56,93.18,426.73,161.85,643.72,122.32-61.09,13.6-134.71,23.99-216.77,23.99-311.51,0-498.03-135.08-642.69-149.71C122.47,175.98,3.27,220.99.06,222.21c1.94-2.29,65.87-74.42,263.48-74.42,73.53,0,142.1,20.29,217.41,46.04v.03Z"/>
      <path class="st1" d="M480.96,193.82c130.31,44.55,280.77,105.35,511.84,105.35,153.46,0,317.39-45.17,317.39-45.17,0,0-70.7,36.7-185.47,62.17h-.05c-216.98,39.53-383.15-29.14-643.72-122.32v-.03Z"/>
    </g>
  </g>
  <g>
    <path class="st0" d="M18.29,49.57V0h16.87c4.98,0,13.3.67,19.69,6.84,5.8,5.57,6.91,12.71,6.91,18.06,0,6.54-1.64,12.34-6.47,17.17-3.94,3.94-10.55,7.51-19.03,7.51h-17.99ZM31.14,38.65h2.6c3.12,0,7.51-.3,10.85-3.57,1.64-1.56,3.79-4.68,3.79-10.18,0-4.61-1.41-8.55-3.86-10.85-3.05-2.82-7.06-3.12-10.26-3.12h-3.12v27.72Z"/>
    <path class="st0" d="M87.86,0v29.36c0,2.08.07,5.28,2.53,7.65,1.49,1.41,3.86,2.38,6.09,2.38s4.53-.89,5.95-2.16c2.97-2.6,2.9-6.24,2.9-8.99V0h12.86v28.46c0,5.2-.22,10.63-5.57,16.05-4.16,4.24-9.36,6.17-16.35,6.17-7.8,0-13.38-2.68-16.42-5.95-4.31-4.68-4.83-11-4.83-16.28V0h12.86Z"/>
    <path class="st0" d="M134.02,49.57V0h12.86l23.71,30.32V0h12.86v49.57h-12.86l-23.71-30.32v30.32h-12.86Z"/>
    <path class="st0" d="M228.91,41.25h-17.99l-3.34,8.32h-13.6L213.01,0h14.05l18.65,49.57h-13.75l-3.05-8.32ZM225.49,31.44l-5.57-16.05-5.43,16.05h11Z"/>
    <path class="st0" d="M269.06,20.44l15.76-20.44h15.9l-19.69,23.48,21.48,26.09h-16.65l-16.8-21.48v21.48h-12.86V0h12.86v20.44Z"/>
    <path class="st0" d="M345.82,41.25h-17.99l-3.34,8.32h-13.6L329.92,0h14.05l18.65,49.57h-13.75l-3.05-8.32ZM342.4,31.44l-5.57-16.05-5.43,16.05h11Z"/>
    <path class="st0" d="M373.11,49.57V0h12.86l23.71,30.32V0h12.86v49.57h-12.86l-23.71-30.32v30.32h-12.86Z"/>
    <path class="st0" d="M450.39,25.79L432.47,0h15.38l9.36,13.53,8.99-13.53h15.61l-18.51,25.79v23.78h-12.93v-23.78Z"/>
    <path class="st0" d="M515.57,41.25h-17.99l-3.34,8.32h-13.6L499.67,0h14.05l18.65,49.57h-13.75l-3.05-8.32ZM512.15,31.44l-5.57-16.05-5.43,16.05h11Z"/>
    <path class="st0" d="M562.92,0c3.72,0,8.47.59,12.11,4.38,2.82,2.9,4.24,7.21,4.24,11.15,0,4.24-1.49,7.95-3.94,10.33-1.93,1.86-4.53,2.97-6.84,3.42l15.53,20.29h-15.98l-12.34-19.03v19.03h-12.86V0h20.07ZM555.72,22.22h2.45c1.93,0,4.68-.52,6.24-2.01.97-.97,1.64-2.6,1.64-4.16s-.59-3.12-1.71-4.16c-1.19-1.19-3.34-1.93-6.17-1.93h-2.45v12.26Z"/>
  </g>
  <g>
    <path class="st0" d="M652.74,122.77V4.01h30.8l56.79,72.64V4.01h30.8v118.75h-30.8l-56.79-72.64v72.64h-30.8Z"/>
    <path class="st0" d="M823.62,65.79l-42.91-61.78h36.85l22.43,32.4,21.54-32.4h37.39l-44.33,61.78v56.97h-30.98v-56.97Z"/>
    <path class="st0" d="M1004.15,107.81c-12.11,11.57-29.2,17.63-46.82,17.63s-34.72-6.05-46.82-17.63c-12.64-12.11-18.69-28.66-18.69-44.33s6.05-32.58,18.69-44.51c12.11-11.57,29.2-17.63,46.82-17.63s34.72,6.05,46.82,17.63c12.64,11.93,18.69,28.66,18.69,44.51s-6.05,32.22-18.69,44.33ZM933.29,40.69c-6.41,6.23-9.44,14.96-9.44,23.32,0,10.5,4.99,17.8,9.44,22.08,5.7,5.52,13.71,9.44,24.03,9.44s18.34-3.74,23.86-9.26c5.52-5.52,9.61-13.71,9.61-22.79s-4.09-17.45-9.61-22.79c-6.59-6.23-15.67-9.44-23.86-9.44s-17.63,3.03-24.03,9.44Z"/>
    <path class="st0" d="M1032.27,122.77l20.12-118.75h30.44l24.03,63.38,25.46-63.38h30.8l17.8,118.75h-30.8l-8.72-68.37-28.66,68.37h-12.28l-27.42-68.37-10.15,68.37h-30.62Z"/>
    <path class="st0" d="M1199,122.77V4.01h40.41c11.93,0,31.87,1.6,47.18,16.38,13.89,13.35,16.56,30.44,16.56,43.26,0,15.67-3.92,29.55-15.49,41.13-9.44,9.44-25.28,17.98-45.58,17.98h-43.08ZM1229.8,96.59h6.23c7.48,0,17.98-.71,25.99-8.55,3.92-3.74,9.08-11.22,9.08-24.39,0-11.04-3.38-20.47-9.26-25.99-7.3-6.77-16.91-7.48-24.57-7.48h-7.48v66.41Z"/>
    <path class="st0" d="M1387.08,102.83h-43.08l-8.01,19.94h-32.58l45.58-118.75h33.65l44.69,118.75h-32.94l-7.3-19.94ZM1378.89,79.32l-13.35-38.46-13,38.46h26.35Z"/>
  </g>
</svg>