<?xml version="1.0" encoding="UTF-8"?>
<svg id="Réteg_1" xmlns="http://www.w3.org/2000/svg" version="1.1" xmlns:xlink="http://www.w3.org/1999/xlink" viewBox="0 0 2176.63 1436.41">
  <!-- Generator: Adobe Illustrator 30.5.1, SVG Export Plug-In . SVG Version: 2.1.4 Build 3)  -->
  <defs>
    <style>
      .st0 {
        clip-path: url(#clippath-4);
      }

      .st1 {
        fill: #1d1d1b;
      }

      .st2 {
        fill: #fff;
      }

      .st3 {
        fill: #ffed00;
      }

      .st4 {
        fill: #009fe3;
      }

      .st5 {
        fill: none;
      }

      .st6 {
        clip-path: url(#clippath-1);
      }

      .st7 {
        fill: #bae3fa;
      }

      .st8 {
        fill: #e6007e;
      }

      .st9 {
        fill: #dcdcdc;
      }

      .st10 {
        fill: #d21216;
      }

      .st11 {
        fill: #f4f4f4;
      }

      .st12 {
        clip-path: url(#clippath-2);
      }

      .st13 {
        fill: #acacac;
      }

      .st14 {
        clip-path: url(#clippath);
      }
    </style>
    <clipPath id="clippath">
      <path class="st5" d="M2055.58,990.15V94.88c0-32.78-26.57-59.34-59.34-59.34H253.19c-32.78,0-59.34,26.57-59.34,59.34v1013.96c0,32.78,26.57,59.34,59.34,59.34h980.55c32.78,0,59.34-26.57,59.34-59.34h0c0-32.78,26.57-59.34,59.34-59.34h643.81c32.78,0,59.34-26.57,59.34-59.34Z"/>
    </clipPath>
    <clipPath id="clippath-1">
      <rect class="st5" x="193.84" y="35.53" width="1861.74" height="1132.65"/>
    </clipPath>
    <clipPath id="clippath-2">
      <rect class="st5" x="193.84" y="35.53" width="1861.74" height="1132.65"/>
    </clipPath>
    <clipPath id="clippath-4">
      <rect class="st5" x="193.84" y="35.53" width="1861.74" height="1132.65"/>
    </clipPath>
  </defs>
  <g>
    <path class="st1" d="M1380.19,1112.23v55.95h-18.62v-55.95h-15.28v-15.82h49.18v15.82h-15.28Z"/>
    <path class="st1" d="M1444.33,1156.13h-26.04l-4.84,12.05h-19.69l27.55-71.77h20.34l27.01,71.77h-19.91l-4.41-12.05ZM1439.38,1141.92l-8.07-23.24-7.86,23.24h15.93Z"/>
    <path class="st1" d="M1495.55,1123.2h26.9v-26.79h18.72v71.77h-18.72v-29.05h-26.9v29.05h-18.62v-71.77h18.62v26.79Z"/>
    <path class="st1" d="M1574.86,1096.41v71.77h-18.62v-71.77h18.62Z"/>
    <path class="st1" d="M1617.04,1112.23v55.95h-18.62v-55.95h-15.28v-15.82h49.18v15.82h-15.28Z"/>
    <path class="st1" d="M1705.28,1159.14c-7.32,6.99-17.65,10.65-28.3,10.65s-20.98-3.66-28.3-10.65c-7.64-7.32-11.3-17.32-11.3-26.79s3.66-19.69,11.3-26.9c7.32-6.99,17.65-10.65,28.3-10.65s20.98,3.66,28.3,10.65c7.64,7.21,11.3,17.32,11.3,26.9s-3.66,19.48-11.3,26.79ZM1662.45,1118.57c-3.87,3.77-5.7,9.04-5.7,14.1,0,6.35,3.01,10.76,5.7,13.34,3.44,3.34,8.29,5.7,14.53,5.7s11.08-2.26,14.42-5.59c3.33-3.34,5.81-8.29,5.81-13.77s-2.48-10.55-5.81-13.77c-3.98-3.77-9.47-5.7-14.42-5.7s-10.65,1.83-14.53,5.7ZM1693.66,1076.07l-16.57,14.63-7.96-5.92,13.67-16.57,10.87,7.85Z"/>
    <path class="st1" d="M1755.53,1112.23v55.95h-18.62v-55.95h-15.28v-15.82h49.18v15.82h-15.28Z"/>
    <path class="st1" d="M1820.21,1112.23h-22.49v11.94h20.44v15.82h-20.44v28.19h-18.62v-71.77h41.11v15.82Z"/>
    <path class="st1" d="M1871,1156.13h-26.04l-4.84,12.05h-19.69l27.55-71.77h20.34l27.01,71.77h-19.91l-4.41-12.05ZM1866.05,1141.92l-8.07-23.24-7.86,23.24h15.93Z"/>
    <path class="st1" d="M1922.22,1096.41v55.95h22.38v15.82h-41v-71.77h18.62Z"/>
    <path class="st1" d="M1968.92,1096.41v42.5c0,3.01.11,7.64,3.66,11.08,2.15,2.04,5.6,3.44,8.82,3.44s6.56-1.29,8.61-3.12c4.3-3.77,4.2-9.04,4.2-13.02v-40.89h18.62v41.21c0,7.53-.32,15.39-8.07,23.24-6.03,6.13-13.56,8.93-23.67,8.93-11.3,0-19.37-3.87-23.78-8.61-6.24-6.78-6.99-15.93-6.99-23.57v-41.21h18.62Z"/>
  </g>
  <g class="st14">
    <polygon class="st11" points="193.84 35.53 193.84 1168.18 2055.58 1168.18 2055.58 36.67 2038.31 35.53 193.84 35.53"/>
    <polygon class="st7" points="209.26 35.53 722.07 1168.18 1226.05 1168.18 713.24 35.53 209.26 35.53"/>
    <g class="st6">
      <path class="st9" d="M1772.18,388.57l-14.83,5.35,4.87,13.49,14.83-5.35c15.1-5.45,24.75-19.89,23.99-35.93l-2.4-50.82c23.64,11.8,82.23,41.56,124.64,63.17l91.53,241.97,13.42-5.08-90.19-238.44,76.58-37.18c15.92-7.73,27.01-22.78,29.69-40.27l4.87-31.9,125.27,19.14,2.17-14.18-274.49-41.95c-12.23-1.87-23.01-9.5-28.84-20.4l-92.11-172.17-9.06,13.47,88.52,165.46c7.95,14.88,22.65,25.28,39.32,27.82l135.04,20.64-4.87,31.9c-1.96,12.83-10.1,23.87-21.77,29.53l-79.27,38.49c-91.92-46.84-121.43-61.62-131.22-66.37l-13.43-276-14.33.68,16.6,343.17c.46,9.71-5.38,18.46-14.53,21.76"/>
      <rect class="st9" x="2040.42" y="620.3" width="14.35" height="261.48" transform="translate(-133.28 773.01) rotate(-20.72)"/>
      <path class="st9" d="M1835.68,1003.31l220.44,223.75,10.22-10.07-214.13-217.35,230.62-51.22-3.11-14.01-360.51,80.07,71.91-173.19c9.56-23.02,26.8-42.39,48.55-54.55l136.56-76.36,86.94,229.63,13.42-5.07-110.15-291-13.42,5.08,18.08,47.79-138.43,77.4c-24.55,13.73-44.01,35.59-54.8,61.57l-76.27,183.7-115.08,66.94-142.68-285.48,251.19-114.5,3.73,7.16c7.28,13.99,20.51,23.02,35.18,25.26,7.23,1.1,14.81.56,22.19-1.86l174.79-57.16-4.46-13.64-174.79,57.16c-15.67,5.13-32.58-1.77-40.19-16.4l-3.38-6.49,131.63-60-5.95-13.06-611.63,278.8c-10.85,4.95-22.97,5.36-34.13,1.17-11.16-4.19-20.01-12.48-24.93-23.34l-75.85-167.72c-9.91-21.91-.32-48.17,21.38-58.54l178.38-85.24c14.2-6.78,24.9-18.69,30.14-33.53,5.24-14.84,4.38-30.83-2.41-45.02l-12.94,6.19c5.14,10.73,5.79,22.83,1.82,34.05-3.96,11.22-12.06,20.23-22.79,25.36l-178.37,85.24c-28.69,13.71-41.36,48.43-28.26,77.39l75.85,167.72c6.49,14.36,18.2,25.32,32.96,30.86,5.61,2.11,11.41,3.33,17.22,3.69-3.28,4.5-5.93,9.51-7.86,14.91-5.4,15.11-4.49,31.36,2.58,45.76l231.12,471.21,12.88-6.32-92.04-187.66,363.07-211.19,125.74-27.93ZM1207.79,958.88c-5.34-10.9-6.04-23.19-1.95-34.62,4.09-11.43,12.42-20.49,23.46-25.53l201.47-91.84,143.32,286.76-233.56,135.86-132.74-270.63Z"/>
      <path class="st13" d="M2118.09,563.13l-193.88,73.34c-24.43,8.6-51.41-4.2-60.21-28.58l-100.36-249.36c-7.85-21.76-23.85-38.82-45.06-48.05-21.21-9.23-44.59-9.3-65.86-.22-12.59,5.38-26.92,11.5-42.74,18.27L1480.66,0l-18.8,7.06,129.65,329.37c-312.75,133.71-960.83,412.26-969.51,415.98l-.18.08h0c-63.17,27.84-156.06,54.01-210.72,45.65-66.61-10.18-126.5-74.73-148.42-100.99L31.88,242.86,0,259.31l556.73,1090.71,31.88-16.44-138.14-272.46c-17.42-50.13-5.05-107.56,13.91-147.33.6-.96,1.17-1.93,1.72-2.92,25.65-37.24,113.54-99.29,170.26-125.59,19.35-8.28,781.94-335.86,1030.48-442.03,12.09-5.16,25.4-5.12,37.45.13,12.06,5.25,21.17,14.96,25.63,27.33l100.36,249.36c15.5,42.95,63.1,65.44,106.12,50.15l194.39-73.53-12.69-33.55ZM434.08,894.26l-.51.81-.42.86c-.05.11-.1.22-.15.33-8.49,12.46-23.65,19.66-39.53,17.24-22.03-3.37-37.21-24.03-33.85-46.05,3.37-22.03,24.03-37.21,46.05-33.85,22.03,3.37,37.21,24.03,33.85,46.05-.69,4.52-2.12,8.75-4.13,12.6-.45.67-.89,1.34-1.3,2.01M464.64,833.82c11.73-1.26,23.72-3.16,35.72-5.51-9.84,7.65-19.2,15.42-27.78,23.14-1.89-6.22-4.58-12.14-7.94-17.63M350.18,815.48c-6.46,5.49-12.03,12.06-16.39,19.49l-22-42.64c11.95,8.51,24.81,16.46,38.4,23.16M392.88,949.52c7.24.64,14.37.24,21.22-1.09-2.5,9.99-4.49,20.35-5.83,30.93l-15.39-29.84Z"/>
      <path class="st9" d="M1541.05,335.9l-171.62,70.62c-12.87,5.3-27.6-.85-32.89-13.71l-47.57-115.61c-5.3-12.87.84-27.6,13.71-32.89l171.62-70.62c12.87-5.3,27.6.84,32.89,13.71l47.57,115.61c5.3,12.87-.85,27.6-13.71,32.89"/>
      <path class="st9" d="M1742.97,509.96l-47.96,19.74c-10.32,4.25-22.14-.68-26.39-11l-45.89-111.52c-4.25-10.32.68-22.14,11-26.39l47.96-19.74c10.32-4.25,22.14.68,26.39,11l45.89,111.52c4.25,10.32-.68,22.14-11,26.39"/>
      <path class="st10" d="M1423.21,138.56c-34.11,0-61.76,27.65-61.76,61.76,0,25.07,33.37,69.89,51.05,91.88,5.5,6.84,15.92,6.84,21.41,0,17.68-21.99,51.05-66.81,51.05-91.88,0-34.11-27.65-61.76-61.76-61.76"/>
      <path class="st10" d="M541.87,916.81c-34.11,0-61.76,27.65-61.76,61.76,0,25.07,33.37,69.89,51.05,91.88,5.5,6.84,15.92,6.84,21.41,0,17.68-21.99,51.05-66.81,51.05-91.88,0-34.11-27.65-61.76-61.76-61.76"/>
    </g>
    <g>
      <path class="st1" d="M1556.38,83.77l15.86,4.33,3.86,9.37-18.61-5.91-10.16,18.98-4.04-9.81,8.58-15.1-12.65,5.21-3.12-7.58,29.21-12.02,3.12,7.58-12.04,4.96Z"/>
      <path class="st1" d="M1581.04,109.46l-22.77,9.37,3.75,9.11-6.44,2.65-6.86-16.68,29.2-12.02,3.12,7.58Z"/>
      <path class="st1" d="M1569.42,150.28l-4.36-10.6-5.71.05-3.3-8.01,33.82-.81,3.41,8.28-24.68,23.01-3.33-8.1,4.17-3.81ZM1574.37,145.89l8.11-7.18-10.77.7,2.67,6.48Z"/>
      <path class="st1" d="M1582.77,169.16l-9.68,3.98-3.12-7.58,29.2-12.02,4.97,12.08c1.04,2.54,1.64,5.37.42,8.48-1.25,3.18-3.53,4.62-5.98,5.63-2.32.96-5.16,1.77-8.33.41-3.17-1.36-4.59-3.95-5.53-6.22l-1.96-4.77ZM1588.9,166.64l1.04,2.54c.32.79,1.02,2.24,2.23,2.82,1.17.6,2.37.15,3.07-.13.79-.32,1.8-.84,2.27-1.96.56-1.25.11-2.71-.28-3.67l-1.06-2.58-7.27,2.99Z"/>
      <path class="st1" d="M1601.05,192.31l15.86,4.33,3.86,9.37-18.61-5.91-10.16,18.98-4.04-9.81,8.58-15.1-12.65,5.21-3.12-7.58,29.2-12.02,3.12,7.58-12.04,4.96Z"/>
      <path class="st1" d="M1605.62,238.24l-4.36-10.6-5.71.05-3.3-8.01,33.82-.81,3.41,8.28-24.68,23.01-3.33-8.1,4.17-3.81ZM1610.57,233.85l8.11-7.18-10.77.7,2.67,6.48Z"/>
      <path class="st1" d="M1642.69,259.29l-17.29,7.12c-1.23.5-3.09,1.32-3.9,3.34-.47,1.22-.46,2.85.08,4.17.54,1.31,1.62,2.45,2.71,2.98,2.25,1.12,4.38.19,6-.47l16.64-6.85,3.12,7.57-16.77,6.9c-3.07,1.26-6.32,2.45-10.81.61-3.5-1.42-5.9-4.02-7.6-8.14-1.89-4.6-1.67-8.53-.48-11.12,1.71-3.67,5.31-5.51,8.42-6.79l16.77-6.9,3.12,7.58Z"/>
      <path class="st1" d="M1624.05,295.47c.33-.8,1.06-2.02,2.64-2.67,1.58-.65,2.95-.29,3.76.04,1.48.62,2.28,1.67,2.67,2.64.45,1.09.5,2.46-.07,3.82-.44,1.05-1.18,1.97-2.63,2.57s-2.62.47-3.74,0c-1.3-.54-2.21-1.5-2.67-2.64-.4-.96-.58-2.27.04-3.76Z"/>
    </g>
    <g>
      <path class="st1" d="M1703.53,549.22c1.74,4.24-.06,8.52-4.44,10.33s-8.68.03-10.43-4.21c-1.75-4.24.05-8.54,4.44-10.35,4.38-1.8,8.69-.01,10.43,4.23ZM1700.74,550.37c-1.16-2.82-3.91-4.03-6.62-2.92-2.71,1.12-3.81,3.91-2.65,6.73,1.16,2.82,3.9,4.01,6.61,2.9,2.71-1.12,3.82-3.89,2.66-6.71Z"/>
      <path class="st1" d="M1707.2,539.55c1.92-.79,3.11-.69,3.98-.42,1.43.46,2.24,1.52,2.67,2.57.56,1.36.51,2.77-.28,3.95-.25.4-.66.83-1.28,1.23l6.76,4.08-3.38,1.39-6.02-4.07-.33.14,2.3,5.6-2.71,1.12-5.73-13.93,4.03-1.66ZM1708.52,546.5l.77-.32c.52-.21,2.65-1.16,1.81-3.21-.85-2.07-2.99-1.21-3.49-1l-.81.33,1.73,4.2Z"/>
      <path class="st1" d="M1716.58,535.69l7.57,7.83-.13-10.89,2.96-1.22-.16,16.35-1.63.67-11.58-11.52,2.97-1.22Z"/>
      <path class="st1" d="M1745.68,531.87c1.74,4.24-.06,8.52-4.45,10.33-4.38,1.8-8.68.03-10.42-4.21-1.75-4.24.05-8.54,4.44-10.35s8.69-.01,10.43,4.23ZM1742.88,533.02c-1.16-2.82-3.91-4.03-6.62-2.92s-3.81,3.91-2.65,6.73c1.16,2.82,3.9,4.01,6.61,2.9s3.82-3.89,2.66-6.71Z"/>
      <path class="st1" d="M1753.47,524.22c-1.26-.75-2.27-.46-2.77-.25-1.46.6-1.54,1.71-1.25,2.42.14.33.37.6.83.76.46.18.99.15,2,.11,1.24-.07,2.42-.12,3.4.24.86.31,1.81,1.01,2.39,2.43,1.12,2.72-.08,5.38-2.96,6.57-2.57,1.06-4.72.11-5.89-.65l1.08-2.42c1.23,1.08,2.71,1.06,3.69.66,1.23-.51,1.84-1.64,1.36-2.81-.21-.5-.54-.83-1.06-1.03-.72-.27-1.67-.19-2.57-.14-.83.05-1.85.08-2.82-.26-.62-.21-1.59-.71-2.17-2.13-.84-2.05-.31-4.66,2.79-5.93.88-.36,2.6-.87,4.62,0l-.65,2.45Z"/>
      <path class="st1" d="M1759.18,518.16l5.73,13.93-2.72,1.12-5.73-13.93,2.71-1.12Z"/>
    </g>
    <g>
      <path class="st1" d="M1694.71,574c1.92-.79,3.11-.69,3.98-.42,1.43.46,2.24,1.52,2.67,2.57.56,1.36.51,2.77-.28,3.95-.25.4-.66.83-1.28,1.23l6.76,4.08-3.38,1.39-6.02-4.07-.33.14,2.3,5.6-2.71,1.12-5.73-13.93,4.03-1.66ZM1696.03,580.95l.77-.32c.52-.21,2.65-1.16,1.81-3.21-.85-2.07-2.99-1.21-3.49-1l-.81.33,1.73,4.2Z"/>
      <path class="st1" d="M1711.35,569.88l-5.01,2.06,1.28,3.11,4.8-1.98.96,2.34-4.8,1.98,1.56,3.8,5.01-2.06.96,2.34-7.73,3.18-5.73-13.93,7.73-3.18.96,2.34Z"/>
      <path class="st1" d="M1718.75,580.39l-5.73-13.93,1.88-.77,12.3,5.8-3.82-9.29,2.71-1.12,5.73,13.93-1.88.77-12.31-5.83,3.83,9.31-2.71,1.12Z"/>
      <path class="st1" d="M1732.9,558.28c1.94-.8,3.72-1.29,5.74-.77,2.21.58,4.03,2.2,4.98,4.52.95,2.32.82,4.72-.49,6.77-1.16,1.82-2.6,2.63-4.55,3.43l-3.59,1.48-5.73-13.93,3.63-1.5ZM1736.75,570.25l.84-.34c.69-.28,2.18-.94,3.03-2.32.78-1.25.82-2.93.21-4.41-.6-1.46-1.79-2.63-3.24-3.01-1.47-.37-2.88.11-3.8.49l-.84.34,3.81,9.25Z"/>
      <path class="st1" d="M1751.95,553.17l-5.01,2.06,1.28,3.11,4.8-1.98.96,2.34-4.8,1.98,1.56,3.8,5.01-2.06.96,2.34-7.73,3.18-5.73-13.93,7.73-3.18.96,2.34Z"/>
      <path class="st1" d="M1756.33,548.63l4.77,11.59,4.3-1.77.96,2.34-7.02,2.89-5.73-13.93,2.71-1.12Z"/>
      <path class="st1" d="M1779.15,547.4c1.75,4.24-.06,8.52-4.44,10.33-4.38,1.8-8.68.03-10.43-4.21-1.74-4.24.05-8.54,4.44-10.35,4.39-1.8,8.69-.01,10.43,4.23ZM1767.96,539.09l-1.86,4.04-1.51-.35.98-4.14,2.39.46ZM1776.35,548.55c-1.16-2.82-3.91-4.03-6.62-2.92-2.71,1.12-3.81,3.91-2.65,6.73s3.9,4.01,6.61,2.9,3.82-3.89,2.66-6.71ZM1772.14,537.37l-1.86,4.04-1.51-.35.99-4.12,2.38.44Z"/>
    </g>
    <g>
      <path class="st1" d="M653.67,690.24l9.37,22.77-7.58,3.12-9.37-22.77-6.22,2.56-2.65-6.44,20.01-8.23,2.65,6.44-6.22,2.56Z"/>
      <path class="st1" d="M668.19,676.74l12.02,29.21-7.57,3.12-12.02-29.21,7.58-3.12Z"/>
      <path class="st1" d="M681.89,671.1l9.37,22.77,9.11-3.75,2.65,6.44-16.68,6.87-12.02-29.21,7.57-3.12Z"/>
      <path class="st1" d="M706.91,694.95l-12.02-29.21,9.94-4.09c2.93-1.21,8-2.83,13.26-.75,4.77,1.88,7.15,5.81,8.45,8.96,1.59,3.85,2.03,7.67.35,11.68-1.37,3.28-4.4,6.98-9.39,9.04l-10.6,4.36ZM711.84,685.4l1.53-.63c1.84-.76,4.35-2,5.53-4.73.58-1.32,1.1-3.68-.24-6.92-1.12-2.71-2.9-4.69-4.91-5.46-2.48-.92-4.92-.13-6.8.65l-1.84.76,6.72,16.33Z"/>
      <path class="st1" d="M736.96,666.2l-16.8-10.85,9.06-3.73,8.8,5.7,2.02-10.15,9.19-3.78-4.65,19.68,5.77,14.01-7.62,3.13-5.77-14.01Z"/>
      <path class="st1" d="M774.03,645.93l10.95-4.5-4.49-10.9,7.62-3.13,12.02,29.21-7.62,3.13-4.87-11.82-10.95,4.5,4.87,11.82-7.57,3.12-12.02-29.21,7.58-3.12,4.49,10.9Z"/>
      <path class="st1" d="M801.08,612.38l-4.29,8.73-4.23-1.07,2.79-9.03,5.74,1.38ZM801.81,621.75l12.02,29.21-7.57,3.12-12.02-29.21,7.58-3.12Z"/>
      <path class="st1" d="M819.96,648.43l-12.02-29.21,9.94-4.09c2.93-1.21,8-2.83,13.26-.75,4.77,1.88,7.15,5.81,8.45,8.96,1.59,3.85,2.03,7.67.35,11.68-1.37,3.28-4.4,6.98-9.39,9.04l-10.6,4.36ZM824.89,638.88l1.53-.63c1.84-.76,4.35-2,5.53-4.73.58-1.32,1.1-3.68-.24-6.92-1.12-2.71-2.9-4.69-4.91-5.46-2.48-.92-4.92-.13-6.8.65l-1.84.76,6.72,16.33Z"/>
    </g>
    <g class="st12">
      <path class="st2" d="M1722.57,448.25c0,18-14.59,32.6-32.6,32.6s-32.6-14.59-32.6-32.6,14.59-32.6,32.6-32.6,32.6,14.59,32.6,32.6"/>
      <polygon class="st10" points="1712.17 439.31 1698.91 439.31 1698.91 426.06 1681.04 426.06 1681.04 439.31 1667.79 439.31 1667.79 457.18 1681.04 457.18 1681.04 470.44 1698.91 470.44 1698.91 457.18 1712.17 457.18 1712.17 439.31"/>
    </g>
    <g>
      <path class="st1" d="M1046.62,516.87l12.02,29.21-7.58,3.12-12.02-29.21,7.58-3.12Z"/>
      <path class="st1" d="M1072.13,513.9l-9.15,3.77,2,4.86,8.32-3.42,2.65,6.44-8.32,3.42,4.72,11.47-7.57,3.12-12.02-29.21,16.73-6.88,2.65,6.44Z"/>
      <path class="st1" d="M1084.54,501.27l8.27,20.1c1.12,2.71,1.73,4.82.39,8.03-1.13,2.72-3.07,4.49-6,5.7-1.62.67-3.09.96-5.14.58-1.34-.27-2.76-.86-4.12-1.79l2.86-7.11c.41.75,1.3,1.67,2.01,1.89.52.15,1.22.11,1.66-.07.48-.2.92-.63,1.12-1.02.4-.88-.06-2.38-.42-3.26l-8.2-19.92,7.58-3.12Z"/>
      <path class="st1" d="M1098.24,495.63l7.12,17.29c.5,1.23,1.32,3.09,3.34,3.9,1.22.47,2.85.46,4.17-.08,1.31-.54,2.45-1.62,2.98-2.71,1.12-2.25.19-4.38-.47-6l-6.85-16.64,7.58-3.12,6.9,16.77c1.26,3.06,2.45,6.32.61,10.81-1.42,3.5-4.02,5.9-8.14,7.6-4.6,1.89-8.53,1.67-11.12.48-3.67-1.71-5.51-5.31-6.79-8.42l-6.9-16.77,7.58-3.12ZM1106.7,482.47l-4.29,8.73-4.23-1.07,2.79-9.03,5.74,1.38Z"/>
      <path class="st1" d="M1132.58,505.41c2.25.87,5.3,1.3,7.92.22,1.53-.63,2.25-1.49,2.52-2.21.26-.62.29-1.4-.01-2.15-.23-.57-.72-1.14-1.55-1.41-1.01-.35-2.28-.19-4.4.02l-2.22.2c-1.39.11-3.45.19-5.18-.63-2.16-1.01-3.18-2.99-3.79-4.48-1.48-3.59-.98-6.36-.23-8.15.88-2.1,2.81-4.38,6.35-5.84,2.89-1.19,6.64-1.66,9.99-1.35l-.59,7.15c-3.02-.86-4.8-.33-5.8.08-.74.31-1.68.9-2.14,1.9-.26.62-.37,1.23-.09,1.88.22.52.46.88.93,1.15.33.17,1.07.48,3.08.27l2.61-.25c2.07-.19,4.27-.32,6.49.71,2.14.96,3.2,2.42,4.03,4.44,1.1,2.67,1.51,5.52.27,8.49-1.47,3.52-4.29,5.25-7.4,6.53-1.84.76-3.66,1.3-6.13,1.4-.55.02-2.68.08-5.38-.5l.72-7.46Z"/>
      <path class="st1" d="M1163.05,459.28l-4.29,8.73-4.23-1.07,2.79-9.03,5.74,1.38ZM1175.06,492.44l-10.6,4.36.05,5.71-8.01,3.3-.81-33.82,8.28-3.41,23.01,24.68-8.1,3.33-3.81-4.17ZM1170.66,487.49l-7.18-8.11.7,10.77,6.48-2.67Z"/>
      <path class="st1" d="M1196.71,469.91l15.06-6.2c2.38,5.78,2.89,10.38.72,15.06-1.89,4.11-5.05,6.38-8.78,7.91-5.25,2.16-9.64,1.71-12.99.28-3.09-1.29-6.56-4.01-8.55-8.82-1.91-4.64-1.64-9.21-.13-12.75,1.42-3.4,4.41-6.83,9.57-8.96,2.71-1.12,5.9-1.71,8.69-1.27,2.85.47,5.69,2.01,7.68,3.86l-6,5.95c-1.08-1.14-2.31-1.76-3.31-2.07-1.7-.53-3.22-.36-4.67.23-1.79.74-3.36,2.15-4.16,4.07-1.01,2.41-.72,5.47.22,7.74,1.1,2.67,2.96,4.46,4.92,5.35,2.01.91,4.03.95,6.26.04,1.31-.54,2.76-1.39,3.64-3.09.47-.86.87-2.25.46-3.98l-6.22,2.56-2.43-5.91Z"/>
      <path class="st1" d="M1229.15,441.76l7.12,17.29c.5,1.23,1.32,3.09,3.34,3.9,1.22.47,2.85.46,4.17-.08,1.31-.54,2.46-1.62,2.98-2.71,1.12-2.25.19-4.38-.47-6l-6.85-16.64,7.57-3.12,6.9,16.77c1.26,3.06,2.45,6.32.61,10.81-1.42,3.5-4.02,5.9-8.14,7.6-4.6,1.89-8.53,1.67-11.12.48-3.67-1.71-5.51-5.31-6.79-8.42l-6.9-16.77,7.58-3.12ZM1237.61,428.6l-4.29,8.73-4.23-1.07,2.79-9.03,5.74,1.38Z"/>
      <path class="st1" d="M1266.83,433.78l9.37,22.77-7.58,3.12-9.37-22.77-6.22,2.56-2.65-6.44,20.01-8.23,2.65,6.44-6.22,2.56Z"/>
    </g>
    <g class="st0">
      <path class="st1" d="M1154.79,89.9H295.4c-33.36,0-48.54,18.97-48.54,42.38v230.24c0,23.41,15.19,42.38,48.54,42.38h859.39c20.14,0,38.95-7.04,50.17-18.78l109.99-115.12c13.64-14.28,13.64-32.92,0-47.2l-109.99-115.12c-11.21-11.74-30.03-18.78-50.17-18.78"/>
      <path class="st1" d="M719.49,1072.47h452.92c17.58,0,25.58-10,25.58-22.34v-121.34c0-12.34-8-22.33-25.58-22.33h-452.92c-10.61,0-20.53,3.71-26.44,9.9l-57.97,60.67c-7.19,7.52-7.19,17.35,0,24.87l57.97,60.67c5.91,6.19,15.83,9.9,26.44,9.9"/>
      <path class="st4" d="M300.29,273.83s80.59-75.69,200.32-75.69,204.56,59.71,346.16,87.76c141.6,28.06,283.85-.33,382.05-40.13,0,0-106.04,76.02-304.73,76.02s-287.76-80.59-407.17-91.68c-119.41-11.09-174.88,19.25-216.64,43.72"/>
      <path class="st8" d="M600.89,271.39c162.86,58.24,266.71,101.16,402.33,76.45-38.18,8.5-84.19,14.99-135.48,14.99-194.7,0-311.27-84.43-401.69-93.57-89.22-9.04-163.72,19.09-165.72,19.85,1.21-1.43,41.17-46.52,164.68-46.52,45.96,0,88.81,12.68,135.89,28.77v.02Z"/>
      <path class="st3" d="M600.89,271.38c81.44,27.85,175.49,65.84,319.91,65.84,95.92,0,198.37-28.23,198.37-28.23,0,0-44.19,22.94-115.92,38.86h-.03c-135.62,24.71-239.48-18.22-402.33-76.45v-.02Z"/>
      <path class="st2" d="M311.72,181.22v-30.98h10.54c3.11,0,8.32.42,12.31,4.27,3.62,3.48,4.32,7.94,4.32,11.29,0,4.09-1.02,7.71-4.04,10.73-2.46,2.46-6.6,4.69-11.89,4.69h-11.24ZM319.75,174.39h1.63c1.95,0,4.69-.19,6.78-2.23,1.02-.98,2.37-2.93,2.37-6.36,0-2.88-.88-5.34-2.41-6.78-1.91-1.76-4.41-1.95-6.41-1.95h-1.95v17.33Z"/>
      <path class="st2" d="M355.2,150.24v18.35c0,1.3.05,3.3,1.58,4.78.93.88,2.41,1.49,3.81,1.49s2.83-.56,3.72-1.35c1.86-1.63,1.81-3.9,1.81-5.62v-17.65h8.04v17.79c0,3.25-.14,6.64-3.48,10.03-2.6,2.65-5.85,3.86-10.22,3.86-4.88,0-8.36-1.67-10.27-3.72-2.69-2.93-3.02-6.87-3.02-10.17v-17.79h8.04Z"/>
      <polygon class="st2" points="384.05 181.22 384.05 150.24 392.09 150.24 406.91 169.19 406.91 150.24 414.94 150.24 414.94 181.22 406.91 181.22 392.09 162.27 392.09 181.22 384.05 181.22"/>
      <path class="st2" d="M443.36,176.02h-11.24l-2.09,5.2h-8.5l11.89-30.98h8.78l11.66,30.98h-8.59l-1.91-5.2ZM441.22,169.88l-3.48-10.03-3.39,10.03h6.88Z"/>
      <polygon class="st2" points="468.45 163.01 478.3 150.24 488.24 150.24 475.93 164.91 489.35 181.22 478.95 181.22 468.45 167.79 468.45 181.22 460.41 181.22 460.41 150.24 468.45 150.24 468.45 163.01"/>
      <path class="st2" d="M516.43,176.02h-11.24l-2.09,5.2h-8.5l11.89-30.98h8.78l11.66,30.98h-8.59l-1.91-5.2ZM514.29,169.88l-3.48-10.03-3.39,10.03h6.88Z"/>
      <polygon class="st2" points="533.48 181.22 533.48 150.24 541.52 150.24 556.34 169.19 556.34 150.24 564.37 150.24 564.37 181.22 556.34 181.22 541.52 162.27 541.52 181.22 533.48 181.22"/>
      <polygon class="st2" points="581.78 166.35 570.59 150.24 580.2 150.24 586.06 158.69 591.68 150.24 601.43 150.24 589.86 166.35 589.86 181.22 581.78 181.22 581.78 166.35"/>
      <path class="st2" d="M622.52,176.02h-11.24l-2.09,5.2h-8.5l11.89-30.98h8.78l11.66,30.98h-8.59l-1.91-5.2ZM620.39,169.88l-3.48-10.03-3.39,10.03h6.88Z"/>
      <path class="st2" d="M652.12,150.24c2.32,0,5.29.37,7.57,2.74,1.76,1.81,2.65,4.51,2.65,6.97,0,2.65-.93,4.97-2.46,6.46-1.21,1.16-2.83,1.86-4.27,2.14l9.71,12.68h-9.99l-7.71-11.89v11.89h-8.04v-30.98h12.54ZM647.62,164.12h1.53c1.21,0,2.93-.33,3.9-1.25.6-.6,1.02-1.63,1.02-2.6s-.37-1.95-1.07-2.6c-.74-.74-2.09-1.21-3.86-1.21h-1.53v7.66Z"/>
      <polygon class="st2" points="708.26 226.97 708.26 152.74 727.51 152.74 763 198.15 763 152.74 782.26 152.74 782.26 226.97 763 226.97 727.51 181.57 727.51 226.97 708.26 226.97"/>
      <polygon class="st2" points="815.06 191.36 788.24 152.75 811.27 152.75 825.29 173 838.76 152.75 862.13 152.75 834.42 191.36 834.42 226.97 815.06 226.97 815.06 191.36"/>
      <path class="st2" d="M927.89,217.62c-7.57,7.23-18.25,11.02-29.27,11.02s-21.7-3.78-29.27-11.02c-7.9-7.57-11.68-17.92-11.68-27.71s3.78-20.36,11.68-27.82c7.57-7.23,18.25-11.02,29.27-11.02s21.7,3.78,29.27,11.02c7.9,7.45,11.68,17.92,11.68,27.82s-3.78,20.14-11.68,27.71M883.6,175.67c-4.01,3.9-5.9,9.35-5.9,14.58,0,6.57,3.12,11.13,5.9,13.8,3.56,3.45,8.57,5.9,15.02,5.9s11.46-2.34,14.91-5.79c3.45-3.45,6.01-8.57,6.01-14.24s-2.56-10.91-6.01-14.24c-4.12-3.9-9.79-5.9-14.91-5.9s-11.02,1.89-15.02,5.9"/>
      <polygon class="st2" points="945.47 226.97 958.04 152.74 977.07 152.74 992.09 192.36 1008.01 152.74 1027.26 152.74 1038.39 226.97 1019.14 226.97 1013.68 184.24 995.77 226.97 988.09 226.97 970.95 184.24 964.61 226.97 945.47 226.97"/>
      <path class="st2" d="M1049.68,226.97v-74.22h25.26c7.46,0,19.92,1,29.49,10.24,8.68,8.35,10.35,19.03,10.35,27.04,0,9.79-2.45,18.47-9.68,25.7-5.9,5.9-15.8,11.24-28.49,11.24h-26.93ZM1068.93,210.61h3.9c4.67,0,11.24-.44,16.25-5.34,2.45-2.34,5.68-7.01,5.68-15.24,0-6.9-2.11-12.8-5.79-16.25-4.56-4.23-10.57-4.67-15.36-4.67h-4.67v41.51Z"/>
      <path class="st2" d="M1167.23,214.5h-26.93l-5.01,12.46h-20.36l28.49-74.22h21.03l27.93,74.22h-20.59l-4.56-12.46ZM1162.11,199.81l-8.35-24.04-8.12,24.04h16.47Z"/>
    </g>
    <g>
      <path class="st2" d="M762.91,1018.09c-6.15,5.88-14.84,8.96-23.8,8.96s-17.64-3.08-23.8-8.96c-6.42-6.15-9.5-14.57-9.5-22.53s3.08-16.56,9.5-22.62c6.15-5.88,14.84-8.96,23.8-8.96s17.64,3.08,23.8,8.96c6.42,6.06,9.5,14.57,9.5,22.62s-3.08,16.38-9.5,22.53ZM723.37,957.83c-1.45-1.63-2.26-3.62-2.26-5.43,0-2.71,1.45-4.52,2.35-5.52,1-1,2.62-2.35,5.43-2.35,2.08,0,4.07.91,5.43,2.26,1.54,1.54,2.44,3.62,2.44,5.61s-.81,3.89-2.35,5.52c-1.72,1.72-3.62,2.35-5.52,2.35-2.26,0-4.07-.91-5.52-2.44ZM726.9,983.98c-3.26,3.17-4.8,7.6-4.8,11.85,0,5.34,2.53,9.05,4.8,11.22,2.9,2.8,6.97,4.8,12.22,4.8s9.32-1.9,12.12-4.71,4.89-6.97,4.89-11.58-2.08-8.87-4.89-11.58c-3.35-3.17-7.96-4.79-12.12-4.79s-8.96,1.54-12.22,4.79ZM743.91,957.83c-1.45-1.63-2.26-3.62-2.26-5.43,0-2.71,1.45-4.52,2.35-5.52,1-1,2.62-2.35,5.43-2.35,2.08,0,4.07.91,5.43,2.26,1.54,1.54,2.44,3.62,2.44,5.61s-.81,3.89-2.35,5.52c-1.72,1.72-3.62,2.35-5.52,2.35-2.26,0-4.07-.91-5.52-2.44Z"/>
      <path class="st2" d="M782.37,1025.69v-60.35h15.65l28.87,36.92v-36.92h15.65v60.35h-15.65l-28.87-36.92v36.92h-15.65Z"/>
      <path class="st2" d="M891.94,965.34v60.35h-15.65v-60.35h15.65Z"/>
      <path class="st2" d="M927.41,978.64v47.05h-15.65v-47.05h-12.85v-13.3h41.35v13.3h-12.85Z"/>
      <path class="st2" d="M970.03,978.64v47.05h-15.65v-47.05h-12.85v-13.3h41.35v13.3h-12.85Z"/>
      <path class="st2" d="M1047.75,1015.56h-21.9l-4.07,10.13h-16.56l23.16-60.35h17.1l22.71,60.35h-16.74l-3.71-10.13ZM1050.65,948.24l-13.93,12.31-6.7-4.98,11.49-13.93,9.14,6.61ZM1043.59,1003.62l-6.79-19.54-6.61,19.54h13.39Z"/>
      <path class="st2" d="M1090.82,965.34v47.05h18.82v13.3h-34.47v-60.35h15.65Z"/>
      <path class="st2" d="M1133.35,965.34v47.05h18.82v13.3h-34.47v-60.35h15.65Z"/>
    </g>
  </g>
</svg>