<?xml version="1.0" encoding="UTF-8"?>
<svg id="Réteg_1" xmlns="http://www.w3.org/2000/svg" version="1.1" xmlns:xlink="http://www.w3.org/1999/xlink" viewBox="0 0 2176.63 1436.41">
  <!-- Generator: Adobe Illustrator 30.5.1, SVG Export Plug-In . SVG Version: 2.1.4 Build 3)  -->
  <defs>
    <style>
      .st0 {
        clip-path: url(#clippath-4);
      }

      .st1, .st2, .st3, .st4 {
        fill: #1d1d1b;
      }

      .st5, .st6 {
        fill: #fff;
      }

      .st7 {
        fill: #ffed00;
      }

      .st8 {
        fill: #009fe3;
      }

      .st9 {
        letter-spacing: -.04em;
      }

      .st10 {
        fill: none;
      }

      .st11 {
        letter-spacing: -.04em;
      }

      .st12 {
        clip-path: url(#clippath-1);
      }

      .st13 {
        letter-spacing: -.09em;
      }

      .st14 {
        fill: #bae3fa;
      }

      .st6 {
        font-size: 90.48px;
      }

      .st6, .st3, .st4 {
        font-family: FuturaPT-Bold, 'Futura PT';
        font-weight: 700;
      }

      .st2 {
        font-family: FuturaPT-Demi, 'Futura PT';
        font-size: 22.58px;
        font-weight: 300;
      }

      .st15 {
        letter-spacing: -.02em;
      }

      .st16 {
        fill: #e6007e;
      }

      .st17 {
        letter-spacing: -.02em;
      }

      .st18 {
        fill: #dcdcdc;
      }

      .st19 {
        fill: #d21216;
      }

      .st3 {
        font-size: 107.61px;
      }

      .st20 {
        fill: #f4f4f4;
      }

      .st21 {
        letter-spacing: -.04em;
      }

      .st22 {
        letter-spacing: -.03em;
      }

      .st23 {
        clip-path: url(#clippath-2);
      }

      .st24 {
        fill: #acacac;
      }

      .st4 {
        font-size: 47.35px;
      }

      .st25 {
        clip-path: url(#clippath);
      }
    </style>
    <clipPath id="clippath">
      <path class="st10" d="M2055.58,990.15V94.88c0-32.78-26.57-59.34-59.34-59.34H253.19c-32.78,0-59.34,26.57-59.34,59.34v1013.96c0,32.78,26.57,59.34,59.34,59.34h980.55c32.78,0,59.34-26.57,59.34-59.34h0c0-32.78,26.57-59.34,59.34-59.34h643.81c32.78,0,59.34-26.57,59.34-59.34Z"/>
    </clipPath>
    <clipPath id="clippath-1">
      <rect class="st10" x="193.84" y="35.53" width="1861.74" height="1132.65"/>
    </clipPath>
    <clipPath id="clippath-2">
      <rect class="st10" x="193.84" y="35.53" width="1861.74" height="1132.65"/>
    </clipPath>
    <clipPath id="clippath-4">
      <rect class="st10" x="193.84" y="35.53" width="1861.74" height="1132.65"/>
    </clipPath>
  </defs>
  <text class="st3" transform="translate(1345.5441 1168.179)"><tspan class="st22" x="0" y="0">T</tspan><tspan x="47.46" y="0">AHITÓT</tspan><tspan class="st9" x="426.02" y="0">F</tspan><tspan x="474.12" y="0">A</tspan><tspan class="st21" x="550.53" y="0">L</tspan><tspan x="597.23" y="0">U</tspan></text>
  <g class="st25">
    <polygon class="st20" points="193.84 35.53 193.84 1168.18 2055.58 1168.18 2055.58 36.67 2038.31 35.53 193.84 35.53"/>
    <polygon class="st14" points="209.26 35.53 722.07 1168.18 1226.05 1168.18 713.24 35.53 209.26 35.53"/>
    <g class="st12">
      <path class="st18" d="M1772.18,388.57l-14.83,5.35,4.87,13.49,14.83-5.35c15.1-5.45,24.75-19.89,23.99-35.93l-2.4-50.82c23.64,11.8,82.23,41.56,124.64,63.17l91.53,241.97,13.42-5.08-90.19-238.44,76.58-37.18c15.92-7.73,27.01-22.78,29.69-40.27l4.87-31.9,125.27,19.14,2.17-14.18-274.49-41.95c-12.23-1.87-23.01-9.5-28.84-20.4l-92.11-172.17-9.06,13.47,88.52,165.46c7.95,14.88,22.65,25.28,39.32,27.82l135.04,20.64-4.87,31.9c-1.96,12.83-10.1,23.87-21.77,29.53l-79.27,38.49c-91.92-46.84-121.43-61.62-131.22-66.37l-13.43-276-14.33.68,16.6,343.17c.46,9.71-5.38,18.46-14.53,21.76"/>
      <rect class="st18" x="2040.42" y="620.3" width="14.35" height="261.48" transform="translate(-133.28 773.01) rotate(-20.72)"/>
      <path class="st18" d="M1835.68,1003.31l220.44,223.75,10.22-10.07-214.13-217.35,230.62-51.22-3.11-14.01-360.51,80.07,71.91-173.19c9.56-23.02,26.8-42.39,48.55-54.55l136.56-76.36,86.94,229.63,13.42-5.07-110.15-291-13.42,5.08,18.08,47.79-138.43,77.4c-24.55,13.73-44.01,35.59-54.8,61.57l-76.27,183.7-115.08,66.94-142.68-285.48,251.19-114.5,3.73,7.16c7.28,13.99,20.51,23.02,35.18,25.26,7.23,1.1,14.81.56,22.19-1.86l174.79-57.16-4.46-13.64-174.79,57.16c-15.67,5.13-32.58-1.77-40.19-16.4l-3.38-6.49,131.63-60-5.95-13.06-611.63,278.8c-10.85,4.95-22.97,5.36-34.13,1.17-11.16-4.19-20.01-12.48-24.93-23.34l-75.85-167.72c-9.91-21.91-.32-48.17,21.38-58.54l178.38-85.24c14.2-6.78,24.9-18.69,30.14-33.53,5.24-14.84,4.38-30.83-2.41-45.02l-12.94,6.19c5.14,10.73,5.79,22.83,1.82,34.05-3.96,11.22-12.06,20.23-22.79,25.36l-178.37,85.24c-28.69,13.71-41.36,48.43-28.26,77.39l75.85,167.72c6.49,14.36,18.2,25.32,32.96,30.86,5.61,2.11,11.41,3.33,17.22,3.69-3.28,4.5-5.93,9.51-7.86,14.91-5.4,15.11-4.49,31.36,2.58,45.76l231.12,471.21,12.88-6.32-92.04-187.66,363.07-211.19,125.74-27.93ZM1207.79,958.88c-5.34-10.9-6.04-23.19-1.95-34.62,4.09-11.43,12.42-20.49,23.46-25.53l201.47-91.84,143.32,286.76-233.56,135.86-132.74-270.63Z"/>
      <path class="st24" d="M2118.09,563.13l-193.88,73.34c-24.43,8.6-51.41-4.2-60.21-28.58l-100.36-249.36c-7.85-21.76-23.85-38.82-45.06-48.05-21.21-9.23-44.59-9.3-65.86-.22-12.59,5.38-26.92,11.5-42.74,18.27L1480.66,0l-18.8,7.06,129.65,329.37c-312.75,133.71-960.83,412.26-969.51,415.98l-.18.08h0c-63.17,27.84-156.06,54.01-210.72,45.65-66.61-10.18-126.5-74.73-148.42-100.99L31.88,242.86,0,259.31l556.73,1090.71,31.88-16.44-138.14-272.46c-17.42-50.13-5.05-107.56,13.91-147.33.6-.96,1.17-1.93,1.72-2.92,25.65-37.24,113.54-99.29,170.26-125.59,19.35-8.28,781.94-335.86,1030.48-442.03,12.09-5.16,25.4-5.12,37.45.13,12.06,5.25,21.17,14.96,25.63,27.33l100.36,249.36c15.5,42.95,63.1,65.44,106.12,50.15l194.39-73.53-12.69-33.55ZM434.08,894.26l-.51.81-.42.86c-.05.11-.1.22-.15.33-8.49,12.46-23.65,19.66-39.53,17.24-22.03-3.37-37.21-24.03-33.85-46.05,3.37-22.03,24.03-37.21,46.05-33.85,22.03,3.37,37.21,24.03,33.85,46.05-.69,4.52-2.12,8.75-4.13,12.6-.45.67-.89,1.34-1.3,2.01M464.64,833.82c11.73-1.26,23.72-3.16,35.72-5.51-9.84,7.65-19.2,15.42-27.78,23.14-1.89-6.22-4.58-12.14-7.94-17.63M350.18,815.48c-6.46,5.49-12.03,12.06-16.39,19.49l-22-42.64c11.95,8.51,24.81,16.46,38.4,23.16M392.88,949.52c7.24.64,14.37.24,21.22-1.09-2.5,9.99-4.49,20.35-5.83,30.93l-15.39-29.84Z"/>
      <path class="st18" d="M1541.05,335.9l-171.62,70.62c-12.87,5.3-27.6-.85-32.89-13.71l-47.57-115.61c-5.3-12.87.84-27.6,13.71-32.89l171.62-70.62c12.87-5.3,27.6.84,32.89,13.71l47.57,115.61c5.3,12.87-.85,27.6-13.71,32.89"/>
      <path class="st18" d="M1742.97,509.96l-47.96,19.74c-10.32,4.25-22.14-.68-26.39-11l-45.89-111.52c-4.25-10.32.68-22.14,11-26.39l47.96-19.74c10.32-4.25,22.14.68,26.39,11l45.89,111.52c4.25,10.32-.68,22.14-11,26.39"/>
      <path class="st19" d="M1423.21,138.56c-34.11,0-61.76,27.65-61.76,61.76,0,25.07,33.37,69.89,51.05,91.88,5.5,6.84,15.92,6.84,21.41,0,17.68-21.99,51.05-66.81,51.05-91.88,0-34.11-27.65-61.76-61.76-61.76"/>
      <path class="st19" d="M541.87,916.81c-34.11,0-61.76,27.65-61.76,61.76,0,25.07,33.37,69.89,51.05,91.88,5.5,6.84,15.92,6.84,21.41,0,17.68-21.99,51.05-66.81,51.05-91.88,0-34.11-27.65-61.76-61.76-61.76"/>
    </g>
    <text class="st4" transform="translate(1534.8424 80.1905) rotate(67.6322)"><tspan x="0" y="0">KLAPKA U.</tspan></text>
    <text class="st2" transform="translate(1690.6082 562.6672) rotate(-22.3678)"><tspan x="0" y="0">ORVOSI</tspan></text>
    <text class="st2" transform="translate(1694.8225 590.2364) rotate(-22.3678)"><tspan x="0" y="0">RENDE</tspan><tspan class="st17" x="68.06" y="0">L</tspan><tspan x="77.21" y="0">Ő</tspan></text>
    <text class="st4" transform="translate(648.94 718.81) rotate(-22.37)"><tspan x="0" y="0">TIL</tspan><tspan class="st11" x="59.37" y="0">D</tspan><tspan x="90.57" y="0">Y HÍD</tspan></text>
    <g class="st23">
      <path class="st5" d="M1722.57,448.25c0,18-14.59,32.6-32.6,32.6s-32.6-14.59-32.6-32.6,14.59-32.6,32.6-32.6,32.6,14.59,32.6,32.6"/>
      <polygon class="st19" points="1712.17 439.31 1698.91 439.31 1698.91 426.06 1681.04 426.06 1681.04 439.31 1667.79 439.31 1667.79 457.18 1681.04 457.18 1681.04 470.44 1698.91 470.44 1698.91 457.18 1712.17 457.18 1712.17 439.31"/>
    </g>
    <text class="st4" transform="translate(1048.0023 550.4553) rotate(-22.3678)"><tspan x="0" y="0">I</tspan><tspan class="st13" x="14.82" y="0">F</tspan><tspan x="33.66" y="0">JÚS</tspan><tspan class="st15" x="116.99" y="0">Á</tspan><tspan x="149.7" y="0">G ÚT</tspan></text>
    <g class="st0">
      <path class="st1" d="M1154.79,89.9H295.4c-33.36,0-48.54,18.97-48.54,42.38v230.24c0,23.41,15.19,42.38,48.54,42.38h859.39c20.14,0,38.95-7.04,50.17-18.78l109.99-115.12c13.64-14.28,13.64-32.92,0-47.2l-109.99-115.12c-11.21-11.74-30.03-18.78-50.17-18.78"/>
      <path class="st1" d="M719.49,1072.47h452.92c17.58,0,25.58-10,25.58-22.34v-121.34c0-12.34-8-22.33-25.58-22.33h-452.92c-10.61,0-20.53,3.71-26.44,9.9l-57.97,60.67c-7.19,7.52-7.19,17.35,0,24.87l57.97,60.67c5.91,6.19,15.83,9.9,26.44,9.9"/>
      <path class="st8" d="M300.29,273.83s80.59-75.69,200.32-75.69,204.56,59.71,346.16,87.76c141.6,28.06,283.85-.33,382.05-40.13,0,0-106.04,76.02-304.73,76.02s-287.76-80.59-407.17-91.68c-119.41-11.09-174.88,19.25-216.64,43.72"/>
      <path class="st16" d="M600.89,271.39c162.86,58.24,266.71,101.16,402.33,76.45-38.18,8.5-84.19,14.99-135.48,14.99-194.7,0-311.27-84.43-401.69-93.57-89.22-9.04-163.72,19.09-165.72,19.85,1.21-1.43,41.17-46.52,164.68-46.52,45.96,0,88.81,12.68,135.89,28.77v.02Z"/>
      <path class="st7" d="M600.89,271.38c81.44,27.85,175.49,65.84,319.91,65.84,95.92,0,198.37-28.23,198.37-28.23,0,0-44.19,22.94-115.92,38.86h-.03c-135.62,24.71-239.48-18.22-402.33-76.45v-.02Z"/>
      <path class="st5" d="M311.72,181.22v-30.98h10.54c3.11,0,8.32.42,12.31,4.27,3.62,3.48,4.32,7.94,4.32,11.29,0,4.09-1.02,7.71-4.04,10.73-2.46,2.46-6.6,4.69-11.89,4.69h-11.24ZM319.75,174.39h1.63c1.95,0,4.69-.19,6.78-2.23,1.02-.98,2.37-2.93,2.37-6.36,0-2.88-.88-5.34-2.41-6.78-1.91-1.76-4.41-1.95-6.41-1.95h-1.95v17.33Z"/>
      <path class="st5" d="M355.2,150.24v18.35c0,1.3.05,3.3,1.58,4.78.93.88,2.41,1.49,3.81,1.49s2.83-.56,3.72-1.35c1.86-1.63,1.81-3.9,1.81-5.62v-17.65h8.04v17.79c0,3.25-.14,6.64-3.48,10.03-2.6,2.65-5.85,3.86-10.22,3.86-4.88,0-8.36-1.67-10.27-3.72-2.69-2.93-3.02-6.87-3.02-10.17v-17.79h8.04Z"/>
      <polygon class="st5" points="384.05 181.22 384.05 150.24 392.09 150.24 406.91 169.19 406.91 150.24 414.94 150.24 414.94 181.22 406.91 181.22 392.09 162.27 392.09 181.22 384.05 181.22"/>
      <path class="st5" d="M443.36,176.02h-11.24l-2.09,5.2h-8.5l11.89-30.98h8.78l11.66,30.98h-8.59l-1.91-5.2ZM441.22,169.88l-3.48-10.03-3.39,10.03h6.88Z"/>
      <polygon class="st5" points="468.45 163.01 478.3 150.24 488.24 150.24 475.93 164.91 489.35 181.22 478.95 181.22 468.45 167.79 468.45 181.22 460.41 181.22 460.41 150.24 468.45 150.24 468.45 163.01"/>
      <path class="st5" d="M516.43,176.02h-11.24l-2.09,5.2h-8.5l11.89-30.98h8.78l11.66,30.98h-8.59l-1.91-5.2ZM514.29,169.88l-3.48-10.03-3.39,10.03h6.88Z"/>
      <polygon class="st5" points="533.48 181.22 533.48 150.24 541.52 150.24 556.34 169.19 556.34 150.24 564.37 150.24 564.37 181.22 556.34 181.22 541.52 162.27 541.52 181.22 533.48 181.22"/>
      <polygon class="st5" points="581.78 166.35 570.59 150.24 580.2 150.24 586.06 158.69 591.68 150.24 601.43 150.24 589.86 166.35 589.86 181.22 581.78 181.22 581.78 166.35"/>
      <path class="st5" d="M622.52,176.02h-11.24l-2.09,5.2h-8.5l11.89-30.98h8.78l11.66,30.98h-8.59l-1.91-5.2ZM620.39,169.88l-3.48-10.03-3.39,10.03h6.88Z"/>
      <path class="st5" d="M652.12,150.24c2.32,0,5.29.37,7.57,2.74,1.76,1.81,2.65,4.51,2.65,6.97,0,2.65-.93,4.97-2.46,6.46-1.21,1.16-2.83,1.86-4.27,2.14l9.71,12.68h-9.99l-7.71-11.89v11.89h-8.04v-30.98h12.54ZM647.62,164.12h1.53c1.21,0,2.93-.33,3.9-1.25.6-.6,1.02-1.63,1.02-2.6s-.37-1.95-1.07-2.6c-.74-.74-2.09-1.21-3.86-1.21h-1.53v7.66Z"/>
      <polygon class="st5" points="708.26 226.97 708.26 152.74 727.51 152.74 763 198.15 763 152.74 782.26 152.74 782.26 226.97 763 226.97 727.51 181.57 727.51 226.97 708.26 226.97"/>
      <polygon class="st5" points="815.06 191.36 788.24 152.75 811.27 152.75 825.29 173 838.76 152.75 862.13 152.75 834.42 191.36 834.42 226.97 815.06 226.97 815.06 191.36"/>
      <path class="st5" d="M927.89,217.62c-7.57,7.23-18.25,11.02-29.27,11.02s-21.7-3.78-29.27-11.02c-7.9-7.57-11.68-17.92-11.68-27.71s3.78-20.36,11.68-27.82c7.57-7.23,18.25-11.02,29.27-11.02s21.7,3.78,29.27,11.02c7.9,7.45,11.68,17.92,11.68,27.82s-3.78,20.14-11.68,27.71M883.6,175.67c-4.01,3.9-5.9,9.35-5.9,14.58,0,6.57,3.12,11.13,5.9,13.8,3.56,3.45,8.57,5.9,15.02,5.9s11.46-2.34,14.91-5.79c3.45-3.45,6.01-8.57,6.01-14.24s-2.56-10.91-6.01-14.24c-4.12-3.9-9.79-5.9-14.91-5.9s-11.02,1.89-15.02,5.9"/>
      <polygon class="st5" points="945.47 226.97 958.04 152.74 977.07 152.74 992.09 192.36 1008.01 152.74 1027.26 152.74 1038.39 226.97 1019.14 226.97 1013.68 184.24 995.77 226.97 988.09 226.97 970.95 184.24 964.61 226.97 945.47 226.97"/>
      <path class="st5" d="M1049.68,226.97v-74.22h25.26c7.46,0,19.92,1,29.49,10.24,8.68,8.35,10.35,19.03,10.35,27.04,0,9.79-2.45,18.47-9.68,25.7-5.9,5.9-15.8,11.24-28.49,11.24h-26.93ZM1068.93,210.61h3.9c4.67,0,11.24-.44,16.25-5.34,2.45-2.34,5.68-7.01,5.68-15.24,0-6.9-2.11-12.8-5.79-16.25-4.56-4.23-10.57-4.67-15.36-4.67h-4.67v41.51Z"/>
      <path class="st5" d="M1167.23,214.5h-26.93l-5.01,12.46h-20.36l28.49-74.22h21.03l27.93,74.22h-20.59l-4.56-12.46ZM1162.11,199.81l-8.35-24.04-8.12,24.04h16.47Z"/>
    </g>
    <text class="st6" transform="translate(702.1976 1025.6936)"><tspan x="0" y="0">ÖN ITT ÁLL</tspan></text>
  </g>
</svg>